<svg xmlns="http://www.w3.org/2000/svg" viewBox="0 0 500 500"><g id="freepik--background-complete--inject-13"><rect y="382.4" width="500" height="0.25" style="fill:#ebebeb"></rect><rect x="416.78" y="398.49" width="33.12" height="0.25" style="fill:#ebebeb"></rect><rect x="292.75" y="398.62" width="8.69" height="0.25" style="fill:#ebebeb"></rect><rect x="354.33" y="389.21" width="61.44" height="0.25" style="fill:#ebebeb"></rect><rect x="212.45" y="395.11" width="12.69" height="0.25" style="fill:#ebebeb"></rect><rect x="166.72" y="395.11" width="36.83" height="0.25" style="fill:#ebebeb"></rect><rect x="52.46" y="390.89" width="25.43" height="0.25" style="fill:#ebebeb"></rect><rect x="83.89" y="390.89" width="74.89" height="0.25" style="fill:#ebebeb"></rect><path d="M237,337.8H43.91a5.71,5.71,0,0,1-5.7-5.71V60.66A5.71,5.71,0,0,1,43.91,55H237a5.71,5.71,0,0,1,5.71,5.71V332.09A5.71,5.71,0,0,1,237,337.8ZM43.91,55.2a5.46,5.46,0,0,0-5.45,5.46V332.09a5.46,5.46,0,0,0,5.45,5.46H237a5.47,5.47,0,0,0,5.46-5.46V60.66A5.47,5.47,0,0,0,237,55.2Z" style="fill:#ebebeb"></path><path d="M453.31,337.8H260.21a5.72,5.72,0,0,1-5.71-5.71V60.66A5.72,5.72,0,0,1,260.21,55h193.1A5.71,5.71,0,0,1,459,60.66V332.09A5.71,5.71,0,0,1,453.31,337.8ZM260.21,55.2a5.47,5.47,0,0,0-5.46,5.46V332.09a5.47,5.47,0,0,0,5.46,5.46h193.1a5.47,5.47,0,0,0,5.46-5.46V60.66a5.47,5.47,0,0,0-5.46-5.46Z" style="fill:#ebebeb"></path><circle cx="373.81" cy="127.94" r="42.97" style="fill:#e0e0e0"></circle><circle cx="371.48" cy="127.94" r="42.97" style="fill:#f0f0f0"></circle><path d="M371.49,162.94a35,35,0,1,1,21.73-7.59l-.12.1A34.78,34.78,0,0,1,371.49,162.94Z" style="fill:#fafafa"></path><path d="M372.88,131.42a2.67,2.67,0,0,1-2.85-.29l-17.68-14a2.67,2.67,0,1,1,3.31-4.18l15.7,12.44,8.75-9.91a2.66,2.66,0,1,1,4,3.52L373.69,130.8A2.82,2.82,0,0,1,372.88,131.42Z" style="fill:#e0e0e0"></path><polygon points="66.54 231.51 196.43 231.51 184.56 382.4 54.67 382.4 66.54 231.51" style="fill:#f0f0f0"></polygon><polygon points="60.92 231.51 190.8 231.51 178.93 382.4 49.05 382.4 60.92 231.51" style="fill:#f5f5f5"></polygon><polygon points="159.51 361.34 168.07 252.56 80.34 252.56 71.78 361.34 159.51 361.34" style="fill:#fff"></polygon><rect x="57.22" y="88.41" width="219.41" height="109.79" transform="translate(333.86 286.6) rotate(180)" style="fill:#e6e6e6"></rect><rect x="53.36" y="88.41" width="219.41" height="109.79" transform="translate(326.13 286.6) rotate(180)" style="fill:#f5f5f5"></rect><rect x="115.96" y="40.53" width="94.2" height="205.54" transform="translate(306.37 -19.76) rotate(90)" style="fill:#fafafa"></rect><polygon points="112.28 190.4 97.41 96.2 80.91 96.2 95.78 190.4 112.28 190.4" style="fill:#fff"></polygon><polygon points="151.09 190.4 136.22 96.2 104.85 96.2 119.72 190.4 151.09 190.4" style="fill:#fff"></polygon><polygon points="202.96 190.4 188.09 96.2 171.59 96.2 186.46 190.4 202.96 190.4" style="fill:#fff"></polygon><rect x="14.66" y="141.84" width="94.2" height="2.92" transform="translate(205.06 81.54) rotate(90)" style="fill:#e6e6e6"></rect><rect x="56.23" y="162.2" width="213.67" height="10.46" transform="translate(326.13 334.86) rotate(180)" style="fill:#f5f5f5"></rect><rect x="235.56" y="236" width="45.16" height="146.4" transform="translate(516.28 618.4) rotate(180)" style="fill:#e6e6e6"></rect><polygon points="247.62 382.4 235.56 382.4 235.56 362.19 260.26 362.19 247.62 382.4" style="fill:#f5f5f5"></polygon><rect x="410.31" y="236" width="45.16" height="146.4" transform="translate(865.78 618.4) rotate(180)" style="fill:#e6e6e6"></rect><rect x="235.56" y="236" width="185.27" height="139.44" transform="translate(656.39 611.44) rotate(180)" style="fill:#f5f5f5"></rect><polygon points="408.77 382.4 420.83 382.4 420.83 362.19 396.13 362.19 408.77 382.4" style="fill:#f5f5f5"></polygon><rect x="244.92" y="287.96" width="166.56" height="34.9" transform="translate(656.39 610.82) rotate(180)" style="fill:#f0f0f0"></rect><rect x="244.92" y="330.32" width="166.56" height="34.9" transform="translate(656.39 695.53) rotate(180)" style="fill:#f0f0f0"></rect><path d="M269.73,291.69H386.66a6.76,6.76,0,0,0,6.76-6.75H263A6.75,6.75,0,0,0,269.73,291.69Z" style="fill:#f5f5f5"></path><rect x="244.92" y="245.61" width="166.56" height="34.9" transform="translate(656.39 526.11) rotate(180)" style="fill:#f0f0f0"></rect><path d="M269.73,249.34H386.66a6.76,6.76,0,0,0,6.76-6.75H263A6.75,6.75,0,0,0,269.73,249.34Z" style="fill:#f5f5f5"></path><path d="M269.73,334.05H386.66a6.76,6.76,0,0,0,6.76-6.76H263A6.76,6.76,0,0,0,269.73,334.05Z" style="fill:#f5f5f5"></path></g><g id="freepik--Shadow--inject-13"><ellipse id="freepik--path--inject-13" cx="250" cy="416.24" rx="193.89" ry="11.32" style="fill:#f5f5f5"></ellipse></g><g id="freepik--Thoughts--inject-13"><ellipse cx="137.47" cy="84.08" rx="49.72" ry="34.85" transform="translate(-12.19 24.34) rotate(-9.69)" style="fill:#FF01A0"></ellipse><ellipse cx="137.47" cy="84.08" rx="49.72" ry="34.85" transform="translate(-12.19 24.34) rotate(-9.69)" style="fill:#fff;opacity:0.30000000000000004"></ellipse><path d="M226,85.15c3,6.19-1.8,14.63-10.64,18.86s-18.39,2.62-21.35-3.57,1.81-14.64,10.64-18.86S223,79,226,85.15Z" style="fill:#FF01A0"></path><path d="M226,85.15c3,6.19-1.8,14.63-10.64,18.86s-18.39,2.62-21.35-3.57,1.81-14.64,10.64-18.86S223,79,226,85.15Z" style="fill:#fff;opacity:0.5"></path><path d="M241.81,109.64c.86,3.71-2.75,7.71-8.05,8.93s-10.29-.8-11.14-4.52,2.75-7.71,8-8.93S241,105.92,241.81,109.64Z" style="fill:#FF01A0"></path><path d="M241.81,109.64c.86,3.71-2.75,7.71-8.05,8.93s-10.29-.8-11.14-4.52,2.75-7.71,8-8.93S241,105.92,241.81,109.64Z" style="fill:#fff;opacity:0.6000000000000001"></path><path d="M128.08,112.89c-.62,0-1.24,0-1.85-.09a8.47,8.47,0,0,1-4.92-1.75,4.84,4.84,0,0,1-1.56-2.78c-1.13,0-2.26-.08-3.4-.14-2.5-.15-5.09-.43-6.91-2.11a5.7,5.7,0,0,1-1.78-4A7.06,7.06,0,0,1,103,98.13a6.29,6.29,0,0,1,.32-5.15,15.41,15.41,0,0,1-2.91-2.91,13.32,13.32,0,0,1-2.62-8.27,2.32,2.32,0,0,1-1.13-1.14c-.4-1,.11-2.12,1.44-3.21.27-.23.56-.46.84-.68a13.35,13.35,0,0,1,8.35-7.23c3-.86,6.13-.62,9.17-.38h.15a55.3,55.3,0,0,1,6.71-.83,12.46,12.46,0,0,1,3.85-.28,7.88,7.88,0,0,0,3.22-2.72,14.18,14.18,0,0,0,1.06-2,14.5,14.5,0,0,1,1.11-2.14c1.86-2.79,5.47-4.38,10.75-4.73,6.26-.4,11.33.68,15.07,3.21a12.61,12.61,0,0,1,3.55,3.59,22.9,22.9,0,0,1,5.52,1c2.53.73,8.42,2.95,8.39,7.78a10.1,10.1,0,0,1-1.35,4.35l-2.09,4.3a7.24,7.24,0,0,1,.13,1.66,9.57,9.57,0,0,1,1.16.57c1.7,1,3.46,2.79,3.32,5-.09,1.44-1,2.83-2.65,4.22a22.76,22.76,0,0,1-7,3.86,30.16,30.16,0,0,1-2.8,4.41c-2.05,2.68-5.47,6.14-10.12,7.39a12.33,12.33,0,0,1-8.81-.85c-.89.59-1.78,1.11-2.59,1.55C137.64,111.42,132.65,112.89,128.08,112.89Zm-7.44-4.62a4,4,0,0,0,1.25,2.11,7.63,7.63,0,0,0,4.42,1.55c4.88.44,10.34-1,16.24-4.19.68-.37,1.42-.79,2.16-1.27a9.54,9.54,0,0,1-2.17-1.93,3.39,3.39,0,0,1-.73-1.34c-1.31.2-2.63.35-3.95.46a26,26,0,0,1-6.46,2,14.9,14.9,0,0,1-3.34,1.59A23.72,23.72,0,0,1,120.64,108.27Zm1.56-3.08a3,3,0,0,0-1.32,1.21,2.52,2.52,0,0,0-.3,1,23.44,23.44,0,0,0,7.21-1c.41-.14.83-.3,1.26-.49A19.09,19.09,0,0,1,122.2,105.19Zm-13.65-2.9a4.75,4.75,0,0,0,1.49,3.09c1.6,1.48,4,1.73,6.36,1.87,1.11.06,2.21.12,3.3.14a3.31,3.31,0,0,1,.41-1.41,3.48,3.48,0,0,1,1-1.16c-.39-.15-.77-.31-1.14-.49l0,.13a2,2,0,0,1-1.38,1.35,2.94,2.94,0,0,1-2.65-.43,5.73,5.73,0,0,1-1.81-3.23,12.58,12.58,0,0,1-3.62.39A11.45,11.45,0,0,1,108.55,102.29Zm37.83,4.1a11.51,11.51,0,0,0,7.76.57c4.41-1.18,7.68-4.5,9.65-7.07a29.64,29.64,0,0,0,2.28-3.47q-1.74.54-3.54.93a13.91,13.91,0,0,1-5.81,2.88,42.79,42.79,0,0,1-5.78,1.14,15.71,15.71,0,0,1-1.05,1.64A16,16,0,0,1,146.38,106.39Zm-3.7-3.34a2.66,2.66,0,0,0,.54.94,8.59,8.59,0,0,0,2.29,1.94,15.72,15.72,0,0,0,3.67-3.44c.24-.32.46-.65.67-1l-1.89.18A32.76,32.76,0,0,1,142.68,103.05ZM115,101.9a5,5,0,0,0,1.51,2.79,2.1,2.1,0,0,0,1.84.29,1.18,1.18,0,0,0,.8-.76,1.55,1.55,0,0,0,.06-.31,15.14,15.14,0,0,1-2.55-1.74c-.25-.21-.49-.43-.72-.65C115.6,101.66,115.28,101.78,115,101.9Zm8.88,2.76a20.73,20.73,0,0,0,7.33.11,11.7,11.7,0,0,0,1-.75h-.31c-2.18.11-4.43.22-6.6.43A12,12,0,0,0,123.84,104.66Zm9.7-.71-.45.43c.59-.15,1.19-.31,1.77-.5Zm-13.47-.58a15.06,15.06,0,0,0,2.13.86,10.77,10.77,0,0,1,3-.65c2.18-.21,4.45-.32,6.64-.42l1.35-.07a10.79,10.79,0,0,0,1-1.29,101,101,0,0,0-12.67.33,1.76,1.76,0,0,0-1.29.48A1.45,1.45,0,0,0,120.07,103.37Zm15.15-1.55a13,13,0,0,1-.84,1.21c1.08-.06,2.16-.13,3.23-.23.62-.28,1.21-.58,1.79-.91-1.28,0-2.55,0-3.82-.06Zm-18.5-.73.46.4a13.9,13.9,0,0,0,2,1.43,1.77,1.77,0,0,1,.29-.8,2.44,2.44,0,0,1,1.91-.87,107.17,107.17,0,0,1,13.28-.32,7.44,7.44,0,0,0,.52-1.23,11.93,11.93,0,0,1-2.88.53,46.62,46.62,0,0,1-13.5-.76A11.77,11.77,0,0,1,116.72,101.09Zm24.35.81-.15.1-.92.56c.61-.07,1.21-.16,1.81-.26a2.12,2.12,0,0,1,.14-.4Zm2,0a1.12,1.12,0,0,0-.19.24l1.28-.26Zm-34.49-.5a10.4,10.4,0,0,0,2,.27,11.73,11.73,0,0,0,3.39-.36c-.21-.93-.42-2-.6-3.07l-.18-.31c-1-.34-1.93-.7-2.88-1.1a8.57,8.57,0,0,0-1.72,4.4S108.53,101.33,108.53,101.39ZM104,93.5a5.37,5.37,0,0,0-.23,4.3,6.12,6.12,0,0,0,3.91,3.34,9.24,9.24,0,0,1,1.76-4.67c-.44-.19-.86-.39-1.29-.6A28.27,28.27,0,0,1,104,93.5ZM114.54,100c.07.35.15.69.22,1l.48-.19C115,100.58,114.76,100.31,114.54,100Zm21.13.93c1.7,0,3.42.07,5.14.07a34.63,34.63,0,0,0,4.94-4,19.86,19.86,0,0,1-2.28-.56A16.74,16.74,0,0,1,139,94.34,6.09,6.09,0,0,1,136.69,99l-.42.28A9.71,9.71,0,0,1,135.67,101Zm11.18-3.77a36.67,36.67,0,0,1-4.49,3.84h.3a5.77,5.77,0,0,1,2-1,53.12,53.12,0,0,1,6.7-1.59c.25-.61.48-1.25.71-1.91A9.9,9.9,0,0,1,146.85,97.18Zm4.09,2.19a49.88,49.88,0,0,0-6.05,1.46l-.41.15c1.1,0,2.19-.09,3.29-.17a23.55,23.55,0,0,0,3.16-1.43Zm-36.5-1a13.88,13.88,0,0,0,1.63,2.1,10.37,10.37,0,0,0,1.72-1.2C116.66,99,115.54,98.68,114.44,98.34ZM151.62,100l-.2.42a41.27,41.27,0,0,0,5.06-1,16.4,16.4,0,0,0,4-1.61c-1.62.3-3.24.56-4.86.82l-2.39.38-.53.36C152.35,99.57,152,99.79,151.62,100Zm-32.05-1.28a45.69,45.69,0,0,0,12.69.64,9.4,9.4,0,0,0,3.23-.72,17.64,17.64,0,0,0,.11-4.25c0-.48,0-1-.07-1.44A9.92,9.92,0,0,1,133,94.64a11.41,11.41,0,0,1-9.28-.15,9.63,9.63,0,0,1-1.07-.21l-.35.61A21.84,21.84,0,0,1,119.57,98.72Zm-5.5-1.42a45.7,45.7,0,0,0,4.49,1.21,20.14,20.14,0,0,0,3-4.06l.24-.42A11,11,0,0,1,119,92.56a19.69,19.69,0,0,0-5.24,1.54C113.8,95.21,113.92,96.28,114.07,97.3Zm39-1.11c-.05.12-.09.25-.14.38-.2.57-.39,1.12-.6,1.66l.55-.09a10.66,10.66,0,0,0,1.83-1.72ZM136.4,92.08v.31c0,.65,0,1.3.07,2a22.49,22.49,0,0,1,0,3.67,5.77,5.77,0,0,0,1.7-4.33,8.82,8.82,0,0,1-1.62-1.77Zm19.35,4.44a9.59,9.59,0,0,1-1.17,1.34l.91-.14c2.26-.36,4.47-.71,6.61-1.17.06,0,.11-.11.17-.17a16.9,16.9,0,0,1-3.23.28C157.94,96.66,156.84,96.62,155.75,96.52Zm-44.9-.4,1.73.67c-.24-.54-.45-1.09-.64-1.64A8.23,8.23,0,0,0,110.85,96.12Zm36.8.25a8.92,8.92,0,0,0,3.65-.52l-1-.22c-.56-.13-1.09-.28-1.61-.43Q148.2,95.79,147.65,96.37ZM139,93.27a15,15,0,0,0,4.69,2.36,16.74,16.74,0,0,0,2.8.63c.44-.44.86-.9,1.28-1.36a16.61,16.61,0,0,1-6.69-4,12.92,12.92,0,0,1-2.21-3.09h0a14,14,0,0,1-.69,1.58,16.36,16.36,0,0,1,.69,2.58A8.81,8.81,0,0,1,139,93.27ZM163.69,96l-.15.2q1.61-.39,3.12-.9a30.66,30.66,0,0,0,2.73-7.84,8.07,8.07,0,0,1-1.25.71,6.6,6.6,0,0,1-.88,5.33A6.89,6.89,0,0,1,163.69,96Zm-7.41-.34c.91.07,1.83.11,2.75.11a14.85,14.85,0,0,0,4.09-.52c.08-.14.16-.28.23-.43a6.85,6.85,0,0,0-.06-5.72,25.39,25.39,0,0,1-4.82-.62l-.86,1.57c-.27.49-.54,1-.82,1.48a5.3,5.3,0,0,1,.2,1.16A5.57,5.57,0,0,1,156.28,95.68Zm-51.87-3a27.08,27.08,0,0,0,4.11,2.36c.49.24,1,.46,1.47.67a8.8,8.8,0,0,1,1.62-1.44l.07,0a16.16,16.16,0,0,1-.45-5.75,12.47,12.47,0,0,0-4.52,1.8A7.92,7.92,0,0,0,104.41,92.72Zm49.36,2.69,1.55.19a4.88,4.88,0,0,0,.79-2.84v-.08A12,12,0,0,1,153.77,95.41Zm-41-.78c.06.2.13.41.2.61,0-.23,0-.46,0-.7Zm36.63-.16,1.17.31c.65.15,1.3.29,2,.41q1-2.88,1.94-5.81c-.22-.22-.44-.43-.66-.61C152.38,90.73,150.93,92.66,149.37,94.47Zm21.06-7.83a31.71,31.71,0,0,1-2.58,8.24,21.24,21.24,0,0,0,5.91-3.41c1.49-1.23,2.25-2.41,2.32-3.6.12-1.81-1.41-3.35-2.87-4.19a8.22,8.22,0,0,0-.84-.42c0,.13-.06.27-.1.4A6.61,6.61,0,0,1,170.43,86.64Zm-6.2,2.46a7.76,7.76,0,0,1,.09,5.72,5.56,5.56,0,0,0,2.22-1.8,5.71,5.71,0,0,0,.78-4.49c-.37.12-.75.23-1.13.32A12,12,0,0,1,164.23,89.1Zm-37.85,5.33a9.8,9.8,0,0,0,6.24-.59,9.47,9.47,0,0,0,2.91-2.11,11.7,11.7,0,0,1,.15-1.51c-.05-.16-.11-.32-.15-.48a4.2,4.2,0,0,1-.14-.59c-.91.31-1.83.6-2.75.86a10,10,0,0,1-5.5,4.24A7,7,0,0,1,126.38,94.43Zm28.72-4.28c-.44,1.38-.89,2.74-1.36,4.1a13.12,13.12,0,0,0,2.09-2.79A5.42,5.42,0,0,0,155.1,90.15Zm-15.36-2.66a11.25,11.25,0,0,0,2,2.81,16,16,0,0,0,6.7,3.89,71.16,71.16,0,0,0,4.62-6c-.3-.2-.57-.38-.81-.52a13.6,13.6,0,0,1-3.86-1.65,17.75,17.75,0,0,0-4.16-.7l-.5.26C142.42,86.29,141.09,86.92,139.74,87.49Zm-27.59.85a15.41,15.41,0,0,0,.35,5.41l.33-.18a32.13,32.13,0,0,1,.15-5.35C112.7,88.25,112.43,88.29,112.15,88.34Zm11.75,5.29a7.74,7.74,0,0,0,3-.22,8.64,8.64,0,0,0,4.36-3,62.69,62.69,0,0,1-7,1.42l-.37,0-.73,1.43Zm-10-5.52a30.6,30.6,0,0,0-.19,5,20,20,0,0,1,4.39-1.32l-.41-.4A13,13,0,0,1,115.28,88Zm7.43,4.09c.36.24.72.47,1.08.67.16-.29.31-.58.46-.87l-.5.07Zm15.82-1a7.14,7.14,0,0,0,1,1.23c0-.09,0-.18,0-.27a16.81,16.81,0,0,0-.41-1.7Zm-38.51-9a12.41,12.41,0,0,0,2.44,7.37,13.88,13.88,0,0,0,2.65,2.66,8.83,8.83,0,0,1,2.5-2.62,13.59,13.59,0,0,1,5.14-2,15.69,15.69,0,0,1,.58-2.34A60.28,60.28,0,0,1,98.62,82.17Zm18.24,5.71a17.67,17.67,0,0,0,3.44,3.58c.64-.1,1.29-.18,1.94-.26l1.08-.15c.29-.58.57-1.16.85-1.73l.29-.59a8.31,8.31,0,0,1-3.17-1.33A41.64,41.64,0,0,1,116.86,87.88Zm8.54.93c-.15.29-.29.59-.44.89s-.39.8-.59,1.21a62.68,62.68,0,0,0,7.72-1.65,24.62,24.62,0,0,0,2.78-6.36l.35-1.18a51.59,51.59,0,0,1,1.93-5.7c-.11-.21-.23-.42-.36-.62a23.54,23.54,0,0,0-2,1.23c-.08.1-.16.21-.25.31a12.55,12.55,0,0,1-.95,4.79c-1.47,3.63-4.52,7.08-8.18,7.08Zm30,.33a7,7,0,0,1,1,1.37c.15-.29.31-.57.47-.86s.45-.84.69-1.26q-.54,0-1.08,0l-.76,0Zm-18.83,1a1.08,1.08,0,0,0,.08.19c.21-.31.41-.64.6-1-.08-.24-.17-.47-.25-.71A7.14,7.14,0,0,0,136.59,90.13Zm-1-6.55a26.75,26.75,0,0,1-2.24,5.31c.65-.2,1.29-.41,1.93-.63a7.4,7.4,0,0,1,.51-3.16A4.81,4.81,0,0,1,135.58,83.58Zm18.84,4.58.31.27.07-.22Zm9-.69a8.46,8.46,0,0,1,.44.77A12,12,0,0,0,166,88a7.77,7.77,0,0,0,1.1-.32,11.56,11.56,0,0,0-.77-1.91A9.5,9.5,0,0,1,163.4,87.47Zm-2.21.61a15.86,15.86,0,0,0,1.64.15c-.09-.16-.19-.32-.29-.47A13.33,13.33,0,0,1,161.19,88.08Zm-24.92-1.45a5.93,5.93,0,0,0-.12,1.33l.25-.1c.06-.12.12-.24.19-.36Zm-8.71-2c-.61,1.06-1.17,2.15-1.72,3.25,3.06-.27,5.63-3.32,6.92-6.51a12.68,12.68,0,0,0,.85-3.35,26,26,0,0,1-4.11,4.08c-.06.13-.12.25-.19.37A7.74,7.74,0,0,1,127.56,84.66Zm-5,2.47a6.25,6.25,0,0,0,2.2.75l.13,0c.34-.7.69-1.39,1-2.08a10,10,0,0,1-1.27.62A14.45,14.45,0,0,1,122.54,87.13ZM156.09,87c.67.2,1.33.36,1.95.5a15.11,15.11,0,0,1,1.66-2.3l.14-.16a15.85,15.85,0,0,0-2.55-1.49L157,84C156.7,85,156.4,86,156.09,87Zm4.45-1.42-.19.2a16.14,16.14,0,0,0-1.25,1.67A14.9,14.9,0,0,0,162,87,11.3,11.3,0,0,0,160.54,85.59Zm-47.71-.24a13.68,13.68,0,0,0-.55,2.09c.27,0,.55-.08.82-.12.1-.64.22-1.27.36-1.91Zm25.54,1.34a4.5,4.5,0,0,0-.64.67l.49-.19ZM167,85.12a12.89,12.89,0,0,1,.92,2.21,7.81,7.81,0,0,0,1.71-1.13c.09-.59.17-1.19.23-1.78a2,2,0,0,1-.64.19,1.13,1.13,0,0,1-1.05-.52l-.12-.17.26-.81a7.43,7.43,0,0,1-1.16,1.83Zm-52.66.4c-.13.56-.24,1.13-.33,1.7l.9-.08Q114.59,86.36,114.33,85.52Zm38.28,1.38q.6.15,1.2.27l0,0A8.54,8.54,0,0,1,149.23,83a7.25,7.25,0,0,1-.42-1.24,10.7,10.7,0,0,1-1.88,1.86,8,8,0,0,0,1.83,1.63,18.84,18.84,0,0,1,3.65,1.54Zm-37.18-1.35a17,17,0,0,0,.86,1.49h.08c1.29-.08,2.59-.17,3.88-.36l-.75-.55-.75-.56C117.7,85.6,116.59,85.6,115.43,85.55Zm39.76,1.16.07,0,.07-.23C155.28,86.57,155.23,86.64,155.19,86.71Zm6-1.73a11.59,11.59,0,0,1,1.69,1.75,8.61,8.61,0,0,0,3-1.76,15,15,0,0,0-1.17-1.73l-.17-.22A10.22,10.22,0,0,0,161.18,85Zm-21.87,1.59.06.13c1-.42,1.95-.86,2.9-1.33a8.15,8.15,0,0,0-2.82.64C139.4,86.2,139.36,86.38,139.31,86.57Zm-2.59-1.38c.14.48.31,1,.48,1.43a4.1,4.1,0,0,1,.63-.62l.25-.21a12.56,12.56,0,0,1-.47-2.19A8.05,8.05,0,0,0,136.72,85.19Zm-16.63.27c.46.35.92.7,1.38,1a14.51,14.51,0,0,0,2.84-.84,9.75,9.75,0,0,0,2.57-1.54l.3-.52A19.63,19.63,0,0,1,120.09,85.46Zm29.52-4.21a5.85,5.85,0,0,0,.42,1.39,7.76,7.76,0,0,0,4.32,3.74c.62-.91,1.23-1.83,1.84-2.75l.15-.5-.51-.21A27.37,27.37,0,0,0,149.61,81.25Zm21.18,2.38c0,.47-.07.94-.13,1.41a5.05,5.05,0,0,0,.76-1.61,4,4,0,0,0,.11-.5l-.23-.07,0,0A3.59,3.59,0,0,1,170.79,83.63ZM139.72,81.5c0,.29.05.57.06.86a14.36,14.36,0,0,1-.15,2.63,10,10,0,0,1,3.05-.52q.67,0,1.35,0a18.86,18.86,0,0,0,1.69-1,6.92,6.92,0,0,1-.85-2c0-.16-.08-.32-.11-.47A27.58,27.58,0,0,0,139.72,81.5Zm-1.31,1.1a12,12,0,0,0,.35,2.3,13.94,13.94,0,0,0,.14-2.51c0-.09,0-.19,0-.29C138.72,82.26,138.56,82.43,138.41,82.6Zm7.15,2c.41,0,.82.11,1.23.18a6.64,6.64,0,0,1-.56-.63ZM115,84.65q1.29.07,2.49.06a7.23,7.23,0,0,0-2.56-1h-.09s0,.09,0,.14c0,.25.11.5.17.74C115,84.57,115,84.61,115,84.65Zm.14-1.84A9.63,9.63,0,0,1,119,84.66,18.28,18.28,0,0,0,128.18,82l0,0c.27-.4.56-.79.86-1.17a17.65,17.65,0,0,0,.51-4.62A21.91,21.91,0,0,1,130,72a9.76,9.76,0,0,0-2.95-.1,24.87,24.87,0,0,0-3.14,1.37,19.31,19.31,0,0,0-5.22,3.86A17,17,0,0,0,115.16,82.81Zm-2,1.69.5,0,.18-.62a1.33,1.33,0,0,1,0-.19.51.51,0,0,0-.16.09A1.63,1.63,0,0,0,113.17,84.5Zm44.61-1.68a17,17,0,0,1,2.7,1.61,10.81,10.81,0,0,1,3.45-2.1c-1-1-2.6-2.2-4.17-1.54A5.09,5.09,0,0,0,157.78,82.82ZM98.65,81.24l.23.09a59.53,59.53,0,0,0,13.37,3.08l0,0a2.78,2.78,0,0,1,.84-1.23,2.19,2.19,0,0,1,.5-.27q-.06-.44-.09-.87a8.62,8.62,0,0,1,.07-1.43,13.72,13.72,0,0,1,.69-4.65,11.38,11.38,0,0,1,4.59-5.71c-.72,0-1.45-.09-2.16-.14A40.63,40.63,0,0,0,99.6,77.34q-.19.45-.36.93A12.13,12.13,0,0,0,98.65,81.24Zm66.81,1.51a15.88,15.88,0,0,1,1.07,1.56,6.69,6.69,0,0,0,1.12-1.9A10.85,10.85,0,0,0,165.46,82.75Zm3.57,1a.21.21,0,0,0,.11,0,1.42,1.42,0,0,0,.8-.47l0-.72-.53-.07Zm-31.52-1.55a1.87,1.87,0,0,0-.92.9,1.76,1.76,0,0,0-.14.65,10.64,10.64,0,0,1,1.06-1.46Zm8.15-1.24a1.22,1.22,0,0,0,.06.26,6.09,6.09,0,0,0,.7,1.7,9.93,9.93,0,0,0,1.79-1.82C147.36,81,146.51,80.94,145.66,80.93Zm-8-3.85c-.63,1.57-1.12,3.24-1.61,4.89l-.14.48a3.19,3.19,0,0,1,1.61-1.26c0-.23,0-.45.07-.68a11.35,11.35,0,0,1,.51-2.31C138,77.82,137.83,77.44,137.67,77.08Zm12,3.29a28.75,28.75,0,0,1,6.5,1.73l.42.18.18-.6a2.15,2.15,0,0,0,.09-1.35c-.24-.52-1-.69-1.71-.79-.92-.12-1.87-.26-2.84-.37l-.27.11-.05-.14c-.62-.07-1.25-.12-1.88-.16A6.06,6.06,0,0,1,149.66,80.37Zm11-.65c1.72,0,3.26,1.34,4.14,2.3a12,12,0,0,1,3.09-.49,9.87,9.87,0,0,0-1.44-7.45,22.31,22.31,0,0,0-3.87-2.16l-.33-.06a11.65,11.65,0,0,1-2.78,3.44A20.77,20.77,0,0,1,154,78.5l1.26.17A2.79,2.79,0,0,1,157.64,80a2.21,2.21,0,0,1,.1,1.39A4.33,4.33,0,0,1,159.42,80,3.13,3.13,0,0,1,160.7,79.72Zm-46.23.9c0,.44,0,.88.08,1.34a17.64,17.64,0,0,1,3.45-5.4,20.22,20.22,0,0,1,5.44-4,14.77,14.77,0,0,0-5.2,2.27A9.1,9.1,0,0,0,114.47,80.62Zm56.27-1.92c0,.17,0,.34,0,.5.07.85.09,1.69.09,2.53l.56-1.16A7.87,7.87,0,0,0,170.74,78.7Zm-1,2.92.27,0c0-.28,0-.57,0-.85Zm-1.55-6.19a10.36,10.36,0,0,1,.66,6.07l1-3a10.09,10.09,0,0,0-.3-1.59c-.14-.18-.3-.36-.46-.54S168.48,75.72,168.17,75.43Zm-29.59,4.46c0,.24-.08.48-.11.73l0,.27.28-.07h0A9,9,0,0,0,138.58,79.89ZM98.27,78.42c-.53.51-1.11,1.25-.84,1.91a1.08,1.08,0,0,0,.38.47A13,13,0,0,1,98.27,78.42Zm46.41.81a14.69,14.69,0,0,0-2.31.64c-.34.13-.68.29-1,.46a30.74,30.74,0,0,1,3.32-.27A5.75,5.75,0,0,1,144.68,79.23Zm.86.82c1,0,2.06.07,3.08.18a9.67,9.67,0,0,1,.07-1.31,21.6,21.6,0,0,0-3.12.17A7.7,7.7,0,0,0,145.54,80.05ZM139,78.21a14,14,0,0,1,.47,1.8l.24-.32a5,5,0,0,0,.66-4.21A12.69,12.69,0,0,0,139,78.21Zm32-.7a9.32,9.32,0,0,1,.94,1.9l1.66-3.4a9.79,9.79,0,0,0,1.26-4c0-4.23-5.43-6.26-7.77-6.94a22.56,22.56,0,0,0-4.76-.93,8.32,8.32,0,0,1,.91,3.56,7.34,7.34,0,0,1-.21,2,12.65,12.65,0,0,1,1.52,1l1.85.12c1.82.12,4.33.52,5.09,2.51a5.18,5.18,0,0,1-.28,3.53ZM130.8,72.27a20.6,20.6,0,0,0-.33,3.92,30.67,30.67,0,0,1-.2,3.18,23,23,0,0,1,3.36-3,4.74,4.74,0,0,0-1.76-3.51A4.48,4.48,0,0,0,130.8,72.27ZM141,74.61a6.32,6.32,0,0,1,0,4.47A23.76,23.76,0,0,0,145.21,77a9.6,9.6,0,0,1,2-3,10.39,10.39,0,0,0-2.36-1.53c-.72.16-1.47.36-2.22.58A11.75,11.75,0,0,0,141,74.61Zm3.78,3.64-.17.1.16,0Zm5.36-.15c.68,0,1.35.11,2,.18a22.7,22.7,0,0,0,6.75-3.65,10.9,10.9,0,0,0,2.42-2.93,20.17,20.17,0,0,0-9.52.31c-.25.57-.49,1.16-.73,1.75-.39,1-.78,2-1.07,3a5.31,5.31,0,0,1,.14,1.07Zm-4.25-.55c-.08.21-.14.42-.2.63a22.83,22.83,0,0,1,3.09-.14c.08-.43.19-.87.31-1.31a5.18,5.18,0,0,0-.72-1.5A11.36,11.36,0,0,1,145.93,77.55Zm-25.41-7.3a10.76,10.76,0,0,0-5.41,6,8.36,8.36,0,0,0-.3,1,10.75,10.75,0,0,1,2.92-3.15,18.17,18.17,0,0,1,8.52-3l.56-.06a25.64,25.64,0,0,1,3.82-1l.06-.11,0,0a10.54,10.54,0,0,0-1.54-.57c-.3-.09-.61-.16-.92-.22H127A17.51,17.51,0,0,1,120.52,70.25ZM138.12,76c.16.32.31.64.45,1a12.67,12.67,0,0,1,1.48-2.54c-.07-.16-.15-.31-.23-.47l-.81.34A17.13,17.13,0,0,0,138.12,76Zm32.21.46a1.71,1.71,0,0,0,.11.14,4.53,4.53,0,0,0,.29-2.92c-.58-1.53-2.75-1.85-4.33-2l-.7,0L166,72a7.47,7.47,0,0,1,3.58,2.76A6.94,6.94,0,0,1,170.33,76.46Zm-39.31-5a5.15,5.15,0,0,1,3.4,4.26c.46-.56.93-1.13,1.41-1.69a13.72,13.72,0,0,0-3.62-3.31c-.32,0-.65.09-1,.15C131.16,71,131.09,71.22,131,71.42Zm-18.89-1.6a16.76,16.76,0,0,0-4.64.56,12.46,12.46,0,0,0-6.94,5.18,40.31,40.31,0,0,1,12.93-5.71Q112.81,69.82,112.13,69.82Zm35.71,4.7a8.94,8.94,0,0,0-.8,1,8,8,0,0,0,.8-1Zm1.09-.06a7,7,0,0,1,.61,1c.24-.67.49-1.33.76-2l.39-1a10.09,10.09,0,0,0-1.15.64A7.24,7.24,0,0,1,148.93,74.46ZM137.57,75l0,.06.05-.11ZM137,74c.05.07.1.14.14.21.44-.22.87-.43,1.3-.62.2-.32.4-.62.62-.91-.12-.15-.25-.3-.38-.44C138.05,72.82,137.49,73.42,137,74Zm3.68-.39,0,0,.06-.07Zm-7.06-3.09a14.6,14.6,0,0,1,2.84,2.77c.51-.57,1-1.12,1.58-1.65a3.4,3.4,0,0,0-.3-.23,9.38,9.38,0,0,0-1.61-1A23.31,23.31,0,0,0,133.57,70.55Zm12.6,1.55a11.3,11.3,0,0,1,1.67,1.21,9.78,9.78,0,0,1,.95-.75c.08-.3.15-.6.2-.9-.61.08-1.21.16-1.81.26Zm-6.07.63.09.14c.68-.25,1.34-.48,2-.68q.36-.3.75-.57l-.09,0c-.41-.13-.83-.25-1.25-.36A10.57,10.57,0,0,0,140.1,72.73Zm-.82-1,.28.33a9.35,9.35,0,0,1,1-1l-.33-.07Q139.73,71.29,139.28,71.68Zm10.61-.12c0,.12,0,.23,0,.35a6.65,6.65,0,0,1,.66-.32l.24-.11Zm-7.37-1,.59.18a15.37,15.37,0,0,1,1.84.7c.72-.16,1.42-.29,2.09-.4s1.35-.21,2-.29a5.61,5.61,0,0,0-.14-1.42,3,3,0,0,0-.13-.47A11.9,11.9,0,0,0,142.52,70.58Zm-12.69.53.35.07c0-.06,0-.11,0-.16Zm8.22-.5.16.12.43.34.4-.34C138.71,70.69,138.38,70.64,138.05,70.61Zm11.66-1.73a2.29,2.29,0,0,1,.07.28,6.91,6.91,0,0,1,.16,1.51l1.6-.13c.24-.5.48-1,.74-1.45A24,24,0,0,0,149.71,68.88Zm13.12,1.74h.1l-.09-.06Zm-1.26-.07.33,0c.06-.15.11-.3.16-.44A20.66,20.66,0,0,0,154,68l-.26.39c.92.16,1.79.36,2.6.55A45.72,45.72,0,0,1,161.57,70.55Zm-8.36-1.32c-.23.4-.45.82-.66,1.25,1.94-.1,3.89-.11,5.83-.06-.78-.22-1.54-.42-2.27-.59C155.1,69.58,154.13,69.38,153.21,69.23Zm-12,1,.18,0,0,0a10.68,10.68,0,0,1,1.31-.83q-.48.23-1,.48C141.58,70,141.4,70.13,141.21,70.25Zm-4.93-.64A25.78,25.78,0,0,1,140,70a13.35,13.35,0,0,1,1.35-.85,17.52,17.52,0,0,1,6.5-1.9,3.7,3.7,0,0,0-.89-.69,7.82,7.82,0,0,0-3.49-.71c-3.59-.15-8.07.26-10.68,2.73A14.59,14.59,0,0,1,136.28,69.61ZM132,69.53l.44.25q.63-.07,1.26-.12c-.52-.12-1-.22-1.58-.3Zm22.65-2.32a21.05,21.05,0,0,1,7.67,2.05,7.14,7.14,0,0,0,.14-1.51,7.85,7.85,0,0,0-1.05-3.62,9,9,0,0,0-4.06.9A8.52,8.52,0,0,0,154.62,67.21Zm-26,1a30.21,30.21,0,0,1,3.11.2c2.75-3.11,7.79-3.62,11.79-3.46a8.75,8.75,0,0,1,3.87.82,4.61,4.61,0,0,1,1.52,1.36c.77-.05,1.48-.07,2.13-.08q1.31,0,2.52.06a9.88,9.88,0,0,1,3.37-2.89,9.63,9.63,0,0,1,3.9-1,11.68,11.68,0,0,0-3-2.87c-3.58-2.43-8.46-3.46-14.53-3.06-5,.32-8.37,1.78-10.07,4.34a15.24,15.24,0,0,0-1.05,2,14.5,14.5,0,0,1-1.11,2.14A8.29,8.29,0,0,1,128.61,68.23Zm21-.24a23.79,23.79,0,0,1,3.19.28c.06-.1.12-.2.19-.3-.63,0-1.27,0-1.92,0C150.59,68,150.1,68,149.58,68Z" style="fill:#fff"></path></g><g id="freepik--Character--inject-13"><path d="M96.52,246.89l2.76,5.35a18.48,18.48,0,0,0,2.13,3.26L87.79,413h3.4l27.06-150.54h42.29L145.42,413h3.4l30.51-157.5a28.62,28.62,0,0,0,3-3.26l4.25-5.35Z" style="fill:#263238"></path><path d="M96.52,246.89l2.76,5.35a18.48,18.48,0,0,0,2.13,3.26L87.79,413h3.4l27.06-150.54h42.29L145.42,413h3.4l30.51-157.5a28.62,28.62,0,0,0,3-3.26l4.25-5.35Z" style="fill:#fff;opacity:0.5"></path><polygon points="291.32 409.97 285.3 409.97 255.56 309.49 265.91 309.49 291.32 409.97" style="fill:#FF01A0"></polygon><polygon points="183.9 409.97 189.92 409.97 219.66 309.49 209.31 309.49 183.9 409.97" style="fill:#FF01A0"></polygon><polygon points="345.51 409.97 339.49 409.97 309.75 309.49 320.11 309.49 345.51 409.97" style="fill:#FF01A0"></polygon><path d="M283.65,186.2c-37.75,8.12-38.39,57.56-34.57,89.82a22.59,22.59,0,0,1-22.42,25.29H189.51a5.61,5.61,0,0,0-2.34,10.7c12.21,5.61,36.72,11.34,85.89,11.34,74.79,0,71.75-40.44,79.67-79.59C365.12,182.58,350.84,171.75,283.65,186.2Z" style="fill:#FF01A0"></path><path d="M283.65,186.2c-37.75,8.12-38.39,57.56-34.57,89.82a22.59,22.59,0,0,1-22.42,25.29H189.51a5.61,5.61,0,0,0-2.34,10.7c12.21,5.61,36.72,11.34,85.89,11.34,74.79,0,71.75-40.44,79.67-79.59C365.12,182.58,350.84,171.75,283.65,186.2Z" style="opacity:0.30000000000000004"></path><path d="M237.8,188.21A12.59,12.59,0,0,0,221,194.14l-.33.7-.47,1-.57,1.15-1.2,2.35c-.83,1.56-1.65,3.13-2.54,4.63l0,0c.69-2.31,1.44-4.63,2.21-6.94s1.6-4.85,2.45-7.27c1.65-4.83,3.44-9.74,5.11-14.51l.06-.16a6.29,6.29,0,0,0-11.05-5.75c-3.21,4.48-6,9-8.79,13.62s-5.29,9.41-7.7,14.32a145.07,145.07,0,0,0-6.47,15.4c-.92,2.72-1.79,5.52-2.51,8.5a49.48,49.48,0,0,0-1.4,9.82,10.85,10.85,0,0,0,8.88,11.1l.82.15a27.65,27.65,0,0,0,10.46-.13,31.93,31.93,0,0,0,9-3.41,47.75,47.75,0,0,0,12.44-10.29,64.27,64.27,0,0,0,4.54-5.69c1.37-1.93,2.68-3.86,3.85-5.85s2.31-4,3.32-6c.51-1,1-2.05,1.49-3.11l.69-1.61.75-1.82A12.62,12.62,0,0,0,237.8,188.21Z" style="fill:#263238"></path><path d="M214.4,156.63l-.27,5a14,14,0,0,0,1,5.83l2,5.13a6.63,6.63,0,0,0,5.73,4.18h0a6.59,6.59,0,0,0,7-5.89,25.86,25.86,0,0,0-.69-7.64l-.56-6.35a4.41,4.41,0,0,0-4.07-4l-5.41-.41A4.43,4.43,0,0,0,214.4,156.63Z" style="fill:#ffb573"></path><path d="M229.18,163.23l-.56-6.34a4.42,4.42,0,0,0-4.06-4l-5.24-.4c-.59,8.18,3.6,17.28,8.19,22.8a6.4,6.4,0,0,0,2.35-4.41A25.62,25.62,0,0,0,229.18,163.23Z" style="opacity:0.2"></path><path d="M274.19,177.14c-14.44,1.08-32.52,2.26-45.49,8.43-6.4,3.05-8.12,9.46-7.17,16.49,1.51,11.16,2.81,20.07,5.59,29.49,6.44,21.73-6.47,37.29,8,54.12,6.35,7.22,45.28,14,72.85,4.94,4-16.45-1.17-57.36-6.7-94.6C299.34,182.86,287.46,176.15,274.19,177.14Z" style="fill:#FF01A0"></path><path d="M256.27,159.65c.7,6.12,3.73,15.1,8.91,17.9a4,4,0,0,1,.73,6.5c-3.05,2.67-7.76,5-14.08,6.31-8.24,1.68-10-.81-9.88-3.37a6,6,0,0,1,1.44-3.34c2.66-3.28,0-5.83-1.65-7.75Z" style="fill:#ffb573"></path><path d="M252.57,168.88a10.09,10.09,0,0,0-.54-1l-10.28,8.05c1,1.25,2.56,2.78,2.75,4.59C249.81,177.33,254.13,172.2,252.57,168.88Z" style="opacity:0.2"></path><path d="M188.51,379.91c2-2.05,14.72-6,14.72-6a252,252,0,0,1,8.24,29.24L195,404.83S192.27,388.14,188.51,379.91Z" style="fill:#ffb573"></path><path d="M261.35,277.62c-47.63.68-110.31-1.87-95.55,41.54,6.32,18.58,5.81,25.41,13.2,47.92,3.18,9.69,4.26,12.54,6.57,19.25,2.53,6,17.69,4.9,23.29,2.55,6.73-3.58,1-13.25.25-18.69-3.83-26.56,4.12-36.71-4.24-54.12,15.2,2.2,57.93.66,64.29-25.46C269.16,290.61,277.92,280.2,261.35,277.62Z" style="fill:#263238"></path><path d="M189.45,389.53l2,4a1.25,1.25,0,0,0,1.33.67c2.7-.47,10.74-1.76,15.42-1.19a1.26,1.26,0,0,0,1.39-1.17c.09-1.58.07-3.63.05-4.92a1.27,1.27,0,0,0-1.26-1.23,91.55,91.55,0,0,0-18.12,2A1.26,1.26,0,0,0,189.45,389.53Z" style="fill:#FF01A0"></path><path d="M215,413.61,213.28,402a1.16,1.16,0,0,0-1.22-.89l-16.89.07a6.23,6.23,0,0,0-3.84,1c-3.8,3.14-9.69,6.15-18.25,7.81-2.71.53-1.56,5.91,4.79,5.88,10.5-.05,10.06-.38,19-.41,7.66,0,9.58.35,15.66.41A2.3,2.3,0,0,0,215,413.61Z" style="fill:#263238"></path><path d="M250.4,143.59c4.47,10.24,7.61,16,5.22,24-3.58,12.09-18.1,14.81-25.53,6.35-6.68-7.62-12.87-23.1-5.22-32.78C232.41,131.64,245.93,133.34,250.4,143.59Z" style="fill:#ffb573"></path><path d="M242.18,168.21a10.64,10.64,0,0,1,1.65.09.28.28,0,0,1,.24.33.27.27,0,0,1-.32.24A7.76,7.76,0,0,0,237,171a.29.29,0,0,1-.41,0,.28.28,0,0,1,0-.4A8.08,8.08,0,0,1,242.18,168.21Z" style="fill:#263238"></path><path d="M237.57,156c-.51.29-.55,1.16-.1,1.94l1.84-1.07C238.86,156.09,238.08,155.7,237.57,156Z" style="fill:#263238"></path><path d="M228,161.43c-.51.29-.56,1.16-.1,1.94l1.84-1.07C229.23,161.52,228.46,161.13,228,161.43Z" style="fill:#263238"></path><path d="M235.07,151.14a.53.53,0,0,1,.55-.19,4.17,4.17,0,0,0,3.74-.75.53.53,0,0,1,.75,0,.53.53,0,0,1,0,.75,5.24,5.24,0,0,1-4.72,1,.53.53,0,0,1-.38-.64A.56.56,0,0,1,235.07,151.14Z" style="fill:#263238"></path><path d="M226.75,155.84a.48.48,0,0,1,.35-.09.53.53,0,0,1,.48.57,5.23,5.23,0,0,1-2.48,4.14.53.53,0,0,1-.71-.22.52.52,0,0,1,.21-.71,4.18,4.18,0,0,0,1.92-3.3A.54.54,0,0,1,226.75,155.84Z" style="fill:#263238"></path><path d="M230.09,162a4.63,4.63,0,0,1-1.93,4C232.82,165.24,230.09,162,230.09,162Z" style="opacity:0.2"></path><path d="M236.31,158.54a4.62,4.62,0,0,0,4.39.1C238.16,161.85,236.31,158.54,236.31,158.54Z" style="opacity:0.2"></path><path d="M258.85,143.93c-.5-4.62-1.72-8.07-3.34-10.41a12.18,12.18,0,0,0,2.17.48c-4.12-6.25-10.84-5.08-13-2.55-2.63-5.75-6.35-1.91-10.58-1.18S222,127.94,222,127.94s1.73,3,4.55,3.46c-5.47,2.47-7.49,6.72-8.94,10s-5.85,7.21-5.85,7.21a7.5,7.5,0,0,0,5-1.84c-.55,3.34-2.86,9.57-4,11,3-1,5.81-4.67,5.81-4.67s.54,6,3.36,10.06c-.58-5.19,7.73-15.58,7.73-15.58a20.59,20.59,0,0,0,0,6.73c3.75-3.17,9.86-13.55,9.86-13.55a39.08,39.08,0,0,0,1.27,8.93,12.29,12.29,0,0,1,2.14-4.83c-1.1,3.72,1.7,12.32,1.7,12.32a26.64,26.64,0,0,1,.43-6.71c.79,2.56,5.64,5.38,7.63,5.67C252.67,156.16,260.26,156.75,258.85,143.93Zm-14.13-12.48Z" style="fill:#263238"></path><path d="M258.75,153.25a10.34,10.34,0,0,1-3.42,7.1c-2.72,2.39-5.64.34-6.19-3-.5-3.05.31-8,3.66-9.05S258.91,149.91,258.75,153.25Z" style="fill:#ffb573"></path><path d="M232.74,160.89s1.51,5.39,1.22,8.75c2.19.23,4-1.94,4-1.94Z" style="fill:#ed893e"></path><path d="M227.24,316.21c-.58-6.61-1.42-13.22-2.54-19.76a29.12,29.12,0,0,0-2.86-8.57c-32-4.26-34.83,22.34-13.68,72.91-1.12-19.86,4-29.53-3.28-44.72A97.67,97.67,0,0,0,227.24,316.21Z" style="opacity:0.2"></path><path d="M255,151.66l2.13,4.43a12,12,0,0,1,1.24,5.41l-.11,5a5.2,5.2,0,0,1-4.16,4.87h0a8.43,8.43,0,0,1-9.22-3.91,22.75,22.75,0,0,1-2.17-7l-1.81-5.8a3.4,3.4,0,0,1,2.56-4.4l5.25-1.42A5.64,5.64,0,0,1,255,151.66Z" style="opacity:0.2"></path><path d="M256.22,152.25l1.64,4.73a13.67,13.67,0,0,1,.71,5.85l-.53,5.5a6.61,6.61,0,0,1-4.34,5.6h0a6.59,6.59,0,0,1-8.39-3.71,25.6,25.6,0,0,1-1.46-7.53l-1.22-6.26a4.42,4.42,0,0,1,2.79-5l5.09-1.89A4.42,4.42,0,0,1,256.22,152.25Z" style="fill:#ffb573"></path><path d="M289.93,182.87A12.57,12.57,0,0,0,274.68,192l-.25,1-.46,1.88L273.4,197c-.41,1.45-.81,2.91-1.28,4.35-.89,2.88-1.95,5.66-3.06,8.29l-.06.14c-1.11-3.35-2.14-6.84-3.06-10.39-.68-2.51-1.33-5.06-1.93-7.62s-1.24-5.14-1.81-7.74c-1.18-5.16-2.28-10.46-3.4-15.6l0-.15a6.29,6.29,0,0,0-12.42,1c-.34,5.68-.33,11.16-.19,16.76s.53,11.16,1.14,16.79c.3,2.82.71,5.65,1.17,8.5s1,5.74,1.75,8.66a73,73,0,0,0,2.8,9,40.54,40.54,0,0,0,2.24,4.86,29.81,29.81,0,0,0,3.69,5.34,11,11,0,0,0,14.1,2.07l.68-.43a44.21,44.21,0,0,0,5.86-4.41,47.15,47.15,0,0,0,4.79-5,63.93,63.93,0,0,0,3.93-5.33c1.17-1.83,2.21-3.67,3.19-5.53a62,62,0,0,0,2.63-5.62c.78-1.89,1.53-3.78,2.15-5.7s1.22-3.83,1.7-5.79c.24-1,.49-2,.69-3L299,199l.3-1.76A12.61,12.61,0,0,0,289.93,182.87Z" style="fill:#263238"></path><path d="M236.08,379c1.75-2.24,14-7.43,14-7.43a252.22,252.22,0,0,1,11.15,28.26l-16.22,3.31S240.66,386.83,236.08,379Z" style="fill:#ffb573"></path><path d="M267.46,274.43c-46.81,3.19-83,3.29-62.36,44.23,8.84,17.52,10.59,26.91,20.22,48.55,4.14,9.32,5.51,12.05,8.48,18.5,3.13,5.73,18.1,3.08,23.43.18,6.33-4.25-.31-13.29-1.64-18.62-6.49-26,.13-35.29-9.79-51.86,15.33.79,55.83,1.32,62.19-24.8C308,290.61,300.37,274.43,267.46,274.43Z" style="fill:#263238"></path><path d="M238,388.49l2.43,3.8a1.26,1.26,0,0,0,1.4.53c2.63-.74,10.5-2.83,15.22-2.75a1.25,1.25,0,0,0,1.26-1.3c-.07-1.58-.29-3.62-.45-4.89a1.25,1.25,0,0,0-1.38-1.1,90.5,90.5,0,0,0-17.82,3.84A1.25,1.25,0,0,0,238,388.49Z" style="fill:#FF01A0"></path><path d="M265.88,409.12l-3.37-11.73a1.14,1.14,0,0,0-1.34-.7l-16.7,2.52a6.18,6.18,0,0,0-3.65,1.58,27.85,27.85,0,0,1-16.48,9.27c-2.7.53-1.55,5.91,4.79,5.88,10.51-.05,10.05-1.39,18.91-2.68,6.7-1,9.54-1,15.6-1.58A2.29,2.29,0,0,0,265.88,409.12Z" style="fill:#263238"></path><rect x="82.35" y="240.68" width="335.29" height="6.2" transform="translate(500 487.57) rotate(180)" style="fill:#FF01A0"></rect><rect x="82.35" y="240.68" width="335.29" height="6.2" transform="translate(500 487.57) rotate(180)" style="fill:#fff;opacity:0.5"></rect><rect x="326.7" y="240.68" width="90.95" height="6.2" transform="translate(744.34 487.57) rotate(180)" style="fill:#FF01A0;opacity:0.30000000000000004"></rect><path d="M408.81,413h3.4L398.59,255.5a18.12,18.12,0,0,0,2.13-3.26l2.76-5.35H313.37l4.25,5.35a27.8,27.8,0,0,0,3.05,3.26L351.18,413h3.4L339.46,262.46h42.29Z" style="fill:#263238"></path><path d="M408.81,413h3.4L398.59,255.5a18.12,18.12,0,0,0,2.13-3.26l2.76-5.35H313.37l4.25,5.35a27.8,27.8,0,0,0,3.05,3.26L351.18,413h3.4L339.46,262.46h42.29Z" style="fill:#fff;opacity:0.6000000000000001"></path></g><g id="freepik--Papers--inject-13"><rect x="88.93" y="214.31" width="79.62" height="26.38" style="fill:#FF01A0"></rect><rect x="88.93" y="214.31" width="79.62" height="26.38" style="fill:#fff;opacity:0.8"></rect><rect x="128.74" y="214.31" width="39.81" height="26.38" style="fill:#FF01A0;opacity:0.30000000000000004"></rect><polygon points="102.48 224.19 128.65 226.39 161.23 224.19 102.48 224.19" style="fill:#FF01A0;opacity:0.30000000000000004"></polygon><polygon points="90.89 230.41 106.11 231.46 125.05 230.41 90.89 230.41" style="fill:#FF01A0;opacity:0.30000000000000004"></polygon><path d="M128.74,209.64c-10.7,5.12-40.95,1.19-40.95,1.19s4,3.48,7.92,3.48h69.64s2.65-.89,2.65-1.83C150.25,215.13,132.22,211.74,128.74,209.64Z" style="fill:#FF01A0"></path><path d="M128.74,209.64c-10.7,5.12-40.95,1.19-40.95,1.19s4,3.48,7.92,3.48h69.64s2.65-.89,2.65-1.83C150.25,215.13,132.22,211.74,128.74,209.64Z" style="fill:#fff;opacity:0.4"></path><rect x="325.71" y="226.58" width="84.58" height="14.1" style="fill:#FF01A0"></rect><rect x="325.71" y="226.58" width="84.58" height="14.1" style="fill:#fff;opacity:0.8"></rect><rect x="367.99" y="226.58" width="42.29" height="14.1" style="fill:#FF01A0;opacity:0.30000000000000004"></rect><polygon points="390.19 234.78 362.39 233.6 327.78 234.78 390.19 234.78" style="fill:#FF01A0;opacity:0.30000000000000004"></polygon><polygon points="402.5 231.44 386.33 230.88 366.21 231.44 402.5 231.44" style="fill:#FF01A0;opacity:0.30000000000000004"></polygon><path d="M360.23,218.58c-2.46,8.66-35.74,4.52-35.74,4.52s4.23,3.48,8.41,3.48h74s8.76-2,8.76-2.94C396.78,226.3,368,224.43,360.23,218.58Z" style="fill:#FF01A0"></path><g style="opacity:0.4"><path d="M360.23,218.58c-2.46,8.66-35.74,4.52-35.74,4.52s4.23,3.48,8.41,3.48h74s8.76-2,8.76-2.94C396.78,226.3,368,224.43,360.23,218.58Z" style="fill:#fff"></path></g></g></svg>